<svg width="50" height="50" viewBox="0 0 50 50" fill="none" xmlns="http://www.w3.org/2000/svg">
<path d="M34.7537 0H14.7463C6.61516 0 0 6.61516 0 14.7463V34.7537C0 42.8848 6.61516 49.5 14.7463 49.5H34.7537C42.8848 49.5 49.5 42.8848 49.5 34.7537V14.7463C49.4999 6.61516 42.8847 0 34.7537 0ZM44.5203 34.7537C44.5203 40.1476 40.1476 44.5203 34.7537 44.5203H14.7463C9.35241 44.5203 4.9797 40.1476 4.9797 34.7537V14.7463C4.9797 9.35232 9.35241 4.9797 14.7463 4.9797H34.7537C40.1476 4.9797 44.5203 9.35232 44.5203 14.7463V34.7537Z" fill="url(#paint0_linear_231_639)"/>
<path d="M24.7497 11.9473C17.6904 11.9473 11.9473 17.6904 11.9473 24.7496C11.9473 31.8088 17.6904 37.5521 24.7497 37.5521C31.809 37.5521 37.5522 31.8089 37.5522 24.7496C37.5522 17.6903 31.809 11.9473 24.7497 11.9473ZM24.7497 32.5725C20.4293 32.5725 16.927 29.0702 16.927 24.7497C16.927 20.4293 20.4294 16.927 24.7497 16.927C29.0702 16.927 32.5725 20.4293 32.5725 24.7497C32.5725 29.0701 29.0701 32.5725 24.7497 32.5725Z" fill="url(#paint1_linear_231_639)"/>
<path d="M37.577 15.1115C39.2713 15.1115 40.6447 13.7381 40.6447 12.0438C40.6447 10.3495 39.2713 8.97607 37.577 8.97607C35.8827 8.97607 34.5093 10.3495 34.5093 12.0438C34.5093 13.7381 35.8827 15.1115 37.577 15.1115Z" fill="url(#paint2_linear_231_639)"/>
<defs>
<linearGradient id="paint0_linear_231_639" x1="24.75" y1="49.3559" x2="24.75" y2="0.384475" gradientUnits="userSpaceOnUse">
<stop stop-color="#E09B3D"/>
<stop offset="0.3" stop-color="#C74C4D"/>
<stop offset="0.6" stop-color="#C21975"/>
<stop offset="1" stop-color="#7024C4"/>
</linearGradient>
<linearGradient id="paint1_linear_231_639" x1="24.7497" y1="49.3556" x2="24.7497" y2="0.384205" gradientUnits="userSpaceOnUse">
<stop stop-color="#E09B3D"/>
<stop offset="0.3" stop-color="#C74C4D"/>
<stop offset="0.6" stop-color="#C21975"/>
<stop offset="1" stop-color="#7024C4"/>
</linearGradient>
<linearGradient id="paint2_linear_231_639" x1="37.577" y1="49.3561" x2="37.577" y2="0.384627" gradientUnits="userSpaceOnUse">
<stop stop-color="#E09B3D"/>
<stop offset="0.3" stop-color="#C74C4D"/>
<stop offset="0.6" stop-color="#C21975"/>
<stop offset="1" stop-color="#7024C4"/>
</linearGradient>
</defs>
</svg>
