<svg width="50" height="50" viewBox="0 0 50 50" fill="none" xmlns="http://www.w3.org/2000/svg">
<g clip-path="url(#clip0_231_633)">
<path d="M1.83305 48.1593L5.11398 36.2628C3.0862 32.7832 2.0213 28.8248 2.02232 24.7867C2.03697 12.1251 12.3891 1.82737 25.1112 1.83057C31.2888 1.83213 37.0762 4.22903 41.4304 8.56473C45.7846 12.9004 48.1786 18.6729 48.177 24.8098C48.1738 37.4714 37.8102 47.7691 25.0996 47.7659L25.0881 47.7659C21.2257 47.765 17.4322 46.7944 14.0631 44.9685L1.83305 48.1593Z" fill="url(#paint0_linear_231_633)"/>
<path fill-rule="evenodd" clip-rule="evenodd" d="M19.1366 14.833C18.6899 13.8405 18.22 13.8176 17.7959 13.8061C17.4521 13.7946 17.0509 13.7945 16.6498 13.7944C16.2486 13.7943 15.6068 13.9424 15.0565 14.5354C14.5062 15.1284 12.97 16.5653 12.9693 19.4969C12.9685 22.417 15.1111 25.2465 15.409 25.6458C15.7069 26.0451 19.5448 32.24 25.6073 34.6255C30.6498 36.6116 31.6814 36.2126 32.7702 36.1102C33.8591 36.0079 36.3007 34.6739 36.8053 33.2824C37.2985 31.8908 37.2988 30.7045 37.1499 30.4535C37.0009 30.2026 36.5998 30.0542 36.0039 29.7574C35.408 29.4607 32.4743 28.0227 31.9242 27.8172C31.3741 27.6232 30.973 27.5204 30.5831 28.1135C30.1818 28.7065 29.0354 30.0409 28.6914 30.44C28.3475 30.8392 27.9922 30.8847 27.3963 30.588C26.8003 30.2912 24.875 29.6634 22.5947 27.6324C20.8186 26.0578 19.6157 24.1069 19.272 23.5137C18.9283 22.9204 19.2378 22.6011 19.5359 22.3046C19.7996 22.0423 20.1321 21.609 20.4301 21.2668C20.7282 20.9247 20.8314 20.6738 21.0264 20.2746C21.2213 19.8754 21.1297 19.5332 20.9808 19.2365C20.8319 18.9513 19.6635 16.0081 19.1366 14.833Z" fill="white"/>
</g>
<defs>
<linearGradient id="paint0_linear_231_633" x1="25.0009" y1="48.1629" x2="25.0126" y2="1.82893" gradientUnits="userSpaceOnUse">
<stop stop-color="#20B038"/>
<stop offset="1" stop-color="#60D66A"/>
</linearGradient>
<clipPath id="clip0_231_633">
<rect width="48" height="48" fill="white" transform="translate(1.0083 0.991699) rotate(0.0144441)"/>
</clipPath>
</defs>
</svg>
