<svg width="48" height="34" viewBox="0 0 48 34" fill="none" xmlns="http://www.w3.org/2000/svg">
<path d="M0.419153 6.69988C0.639492 3.33596 3.36677 0.699662 6.76194 0.532858C11.6784 0.291315 18.7054 0 24 0C29.2946 0 36.3216 0.291315 41.2381 0.532858C44.6332 0.699662 47.3605 3.33596 47.5808 6.69988C47.7919 9.92278 48 13.8884 48 17C48 20.1116 47.7919 24.0772 47.5808 27.3001C47.3605 30.664 44.6332 33.3003 41.2381 33.4671C36.3216 33.7087 29.2946 34 24 34C18.7054 34 11.6784 33.7087 6.76194 33.4671C3.36677 33.3003 0.639491 30.664 0.419153 27.3001C0.208052 24.0772 0 20.1116 0 17C0 13.8884 0.208052 9.92277 0.419153 6.69988Z" fill="#FC0D1B"/>
<path d="M18.8569 10.2002V23.8002L32.5712 17.0002L18.8569 10.2002Z" fill="white"/>
</svg>
